<svg width="36" height="36" viewBox="0 0 36 36" fill="none" xmlns="http://www.w3.org/2000/svg">
<path d="M12.12 30C14.338 30.0742 16.5485 29.7031 18.6206 28.9085C20.6928 28.1138 22.5846 26.9119 24.1843 25.3737C25.7841 23.8355 27.0592 21.9922 27.9345 19.9528C28.8097 17.9134 29.2672 15.7193 29.28 13.5C30.2965 12.2421 31.0513 10.7937 31.5 9.24C31.5335 9.11725 31.5308 8.98742 31.4922 8.86617C31.4536 8.74491 31.3808 8.63739 31.2826 8.55655C31.1843 8.47572 31.0647 8.42501 30.9383 8.41054C30.8119 8.39608 30.684 8.41846 30.57 8.47501C30.0382 8.73099 29.4395 8.81367 28.8583 8.71141C28.277 8.60916 27.7425 8.32711 27.33 7.90501C26.8034 7.32837 26.1665 6.8633 25.4569 6.53735C24.7473 6.21139 23.9795 6.03119 23.1989 6.00741C22.4184 5.98363 21.641 6.11676 20.9129 6.39891C20.1848 6.68106 19.5207 7.1065 18.96 7.65C18.1923 8.39349 17.63 9.32294 17.3277 10.348C17.0255 11.3731 16.9935 12.4589 17.235 13.5C12.21 13.8 8.76 11.415 6 8.145C5.91709 8.05111 5.80862 7.98338 5.68786 7.95011C5.56709 7.91683 5.43925 7.91944 5.31994 7.95762C5.20063 7.9958 5.09502 8.06789 5.01601 8.1651C4.937 8.26231 4.888 8.38041 4.875 8.50501C4.34921 11.4216 4.72849 14.4293 5.96193 17.1241C7.19536 19.8189 9.22387 22.0717 11.775 23.58C10.0645 25.5417 7.66231 26.767 5.07 27C4.93112 27.023 4.80291 27.0889 4.70333 27.1884C4.60374 27.2879 4.53776 27.4161 4.51462 27.5549C4.49147 27.6938 4.51233 27.8364 4.57426 27.9629C4.63619 28.0893 4.7361 28.1932 4.86 28.26C7.11528 29.3871 9.59885 29.9823 12.12 30" fill="black"/>
</svg>
