<svg width="52" height="52" viewBox="0 0 52 52" fill="none" xmlns="http://www.w3.org/2000/svg">
<path d="M15.9791 36.3588L18.6875 32.9745L9.96879 26L18.6875 19.0255L15.9791 15.6411L5.14579 24.3078C4.89196 24.5108 4.68704 24.7683 4.54622 25.0612C4.40539 25.3541 4.33228 25.675 4.33228 26C4.33228 26.325 4.40539 26.6458 4.54622 26.9388C4.68704 27.2317 4.89196 27.4892 5.14579 27.6922L15.9791 36.3588ZM36.0208 15.6411L33.3125 19.0255L42.0311 26L33.3125 32.9745L36.0208 36.3588L46.8541 27.6922C47.108 27.4892 47.3129 27.2317 47.4537 26.9388C47.5945 26.6458 47.6676 26.325 47.6676 26C47.6676 25.675 47.5945 25.3541 47.4537 25.0612C47.3129 24.7683 47.108 24.5108 46.8541 24.3078L36.0208 15.6411ZM32.448 6.96798L23.7813 45.968L19.5498 45.0277L28.2165 6.02765L32.448 6.96798Z" fill="#6700FF"/>
</svg>
