<svg width="32" height="32" viewBox="0 0 32 32" fill="none" xmlns="http://www.w3.org/2000/svg">
<path d="M8.00002 16C11.3334 16 13.3334 14.1334 13.3334 11.3334C13.3334 8.53335 11.3334 6.66669 8.00002 6.66669H2.66669V16H8.00002ZM8.68735 26.6667C12.358 26.6667 14.6667 24.6667 14.6667 21.3334C14.6667 18 12.358 16 8.68735 16H2.66669V26.6667H8.68735Z" stroke="black" stroke-width="4" stroke-linecap="round" stroke-linejoin="round"/>
<path d="M19.3334 20.6667H29.3334C29.3334 18 28 14.6667 24 14.6667C20.6667 14.6667 18.6667 17.3333 18.6667 20.6667C18.6667 24 20.6667 26.6667 24 26.6667C27.3334 26.6667 28.6667 24.6667 28.6667 24.6667M28 10H20" stroke="black" stroke-width="4" stroke-linecap="round" stroke-linejoin="round"/>
</svg>
