<svg width="52" height="52" viewBox="0 0 52 52" fill="none" xmlns="http://www.w3.org/2000/svg">
<path fill-rule="evenodd" clip-rule="evenodd" d="M28.5022 14C27.9488 14 27.5 14.4611 27.5 15.0181V17.3985C27.4999 17.499 27.5192 17.5986 27.5569 17.6914C27.5945 17.7842 27.6497 17.8685 27.7193 17.9394C27.7889 18.0104 27.8715 18.0665 27.9623 18.1047C28.0532 18.1428 28.1505 18.1623 28.2488 18.1618H50.2512C50.3494 18.162 50.4466 18.1425 50.5374 18.1043C50.6282 18.066 50.7107 18.0099 50.7802 17.939C50.8498 17.8681 50.905 17.7839 50.9427 17.6911C50.9804 17.5984 50.9999 17.499 51 17.3985V14.7633C51.0001 14.6628 50.9807 14.5633 50.9431 14.4704C50.9055 14.3776 50.8503 14.2933 50.7807 14.2224C50.7111 14.1514 50.6285 14.0953 50.5377 14.0571C50.4468 14.019 50.3495 13.9996 50.2512 14H28.5022V14ZM28.2488 20.1276C28.1506 20.1273 28.0533 20.1469 27.9626 20.1851C27.8718 20.2234 27.7893 20.2795 27.7197 20.3504C27.6502 20.4213 27.595 20.5055 27.5573 20.5982C27.5196 20.691 27.5001 20.7904 27.5 20.8908V23.5261C27.4999 23.6266 27.5192 23.7261 27.5569 23.819C27.5945 23.9118 27.6497 23.9961 27.7193 24.067C27.7889 24.1379 27.8715 24.1941 27.9623 24.2323C28.0532 24.2704 28.1505 24.2898 28.2488 24.2894H50.2512C50.3494 24.2896 50.4466 24.2701 50.5374 24.2318C50.6282 24.1936 50.7107 24.1374 50.7802 24.0665C50.8498 23.9957 50.905 23.9114 50.9427 23.8187C50.9804 23.726 50.9999 23.6265 51 23.5261V20.8908C51.0001 20.7904 50.9807 20.6908 50.9431 20.598C50.9055 20.5052 50.8503 20.4209 50.7807 20.3499C50.7111 20.279 50.6285 20.2229 50.5377 20.1847C50.4468 20.1465 50.3495 20.1271 50.2512 20.1276H28.2488ZM28.2488 26.7661C28.1506 26.7659 28.0533 26.7854 27.9626 26.8236C27.8718 26.8619 27.7893 26.918 27.7197 26.9889C27.6502 27.0598 27.595 27.144 27.5573 27.2368C27.5196 27.3295 27.5001 27.4289 27.5 27.5294V30.1643C27.4999 30.2648 27.5192 30.3643 27.5569 30.4572C27.5945 30.55 27.6497 30.6343 27.7193 30.7052C27.7889 30.7761 27.8715 30.8323 27.9623 30.8705C28.0532 30.9086 28.1505 30.928 28.2488 30.9276H50.2512C50.3494 30.9278 50.4466 30.9083 50.5374 30.87C50.6282 30.8318 50.7107 30.7756 50.7802 30.7048C50.8498 30.6339 50.905 30.5496 50.9427 30.4569C50.9804 30.3642 50.9999 30.2648 51 30.1643V27.5294C51.0001 27.4289 50.9807 27.3294 50.9431 27.2365C50.9055 27.1437 50.8503 27.0594 50.7807 26.9885C50.7111 26.9175 50.6285 26.8614 50.5377 26.8232C50.4468 26.7851 50.3495 26.7656 50.2512 26.7661H28.2488ZM28.2488 33.4043C28.1506 33.4041 28.0533 33.4236 27.9626 33.4619C27.8718 33.5001 27.7893 33.5563 27.7197 33.6271C27.6502 33.698 27.595 33.7822 27.5573 33.875C27.5196 33.9677 27.5001 34.0671 27.5 34.1676V36.8025C27.4999 36.903 27.5192 37.0026 27.5568 37.0955C27.5944 37.1883 27.6496 37.2727 27.7192 37.3436C27.7888 37.4146 27.8714 37.4708 27.9623 37.509C28.0532 37.5471 28.1505 37.5666 28.2488 37.5661H50.2512C50.3494 37.5664 50.4467 37.5468 50.5375 37.5085C50.6283 37.4703 50.7108 37.4141 50.7804 37.3432C50.8499 37.2722 50.9051 37.188 50.9428 37.0952C50.9805 37.0025 50.9999 36.903 51 36.8025V34.1676C51.0001 34.0671 50.9807 33.9676 50.9431 33.8747C50.9055 33.7819 50.8503 33.6976 50.7807 33.6267C50.7111 33.5557 50.6285 33.4996 50.5377 33.4614C50.4468 33.4233 50.3495 33.4039 50.2512 33.4043H28.2488ZM21.5 37.2355C21.5 37.3359 21.5193 37.4354 21.5568 37.5282C21.5944 37.621 21.6494 37.7053 21.7189 37.7763C21.7883 37.8473 21.8707 37.9036 21.9614 37.942C22.0521 37.9804 22.1494 38.0001 22.2475 38H24.8278C24.926 38.0002 25.0232 37.9806 25.114 37.9423C25.2048 37.904 25.2873 37.8477 25.3567 37.7766C25.4261 37.7056 25.4812 37.6212 25.5186 37.5283C25.5561 37.4355 25.5752 37.3359 25.575 37.2355V14.7642C25.575 14.6638 25.5557 14.5644 25.5181 14.4716C25.4805 14.3789 25.4254 14.2946 25.356 14.2236C25.2866 14.1526 25.2042 14.0964 25.1135 14.058C25.0228 14.0196 24.9256 13.9999 24.8275 14H22.2472C22.149 13.9998 22.0518 14.0194 21.961 14.0577C21.8702 14.096 21.7877 14.1523 21.7183 14.2234C21.6489 14.2944 21.5938 14.3788 21.5564 14.4717C21.5189 14.5645 21.4998 14.6641 21.5 14.7645V37.2355ZM8 37.2355C7.99996 37.3359 8.01927 37.4354 8.05683 37.5282C8.09438 37.621 8.14945 37.7053 8.21888 37.7763C8.2883 37.8473 8.37073 37.9036 8.46144 37.942C8.55215 37.9804 8.64937 38.0001 8.74753 38H11.3278C11.426 38.0002 11.5232 37.9806 11.614 37.9423C11.7048 37.904 11.7873 37.8477 11.8567 37.7766C11.9261 37.7056 11.9812 37.6212 12.0186 37.5283C12.0561 37.4355 12.0752 37.3359 12.075 37.2355V14.7642C12.075 14.6638 12.0557 14.5644 12.0181 14.4716C11.9805 14.3789 11.9254 14.2946 11.856 14.2236C11.7866 14.1526 11.7042 14.0964 11.6135 14.058C11.5228 14.0196 11.4256 13.9999 11.3275 14H8.74722C8.64903 13.9998 8.55175 14.0194 8.46099 14.0577C8.37022 14.096 8.28775 14.1523 8.21831 14.2234C8.14888 14.2944 8.09385 14.3788 8.05638 14.4717C8.01892 14.5645 7.99976 14.6641 8 14.7645V37.2355V37.2355ZM5.075 37.2355C5.07504 37.3359 5.05573 37.4354 5.01818 37.5282C4.98062 37.621 4.92555 37.7053 4.85613 37.7763C4.7867 37.8473 4.70427 37.9036 4.61356 37.942C4.52285 37.9804 4.42563 38.0001 4.32747 38H1.74722C1.64903 38.0002 1.55175 37.9806 1.46099 37.9423C1.37022 37.904 1.28775 37.8477 1.21831 37.7766C1.14888 37.7056 1.09385 37.6212 1.05638 37.5283C1.01892 37.4355 0.999758 37.3359 1 37.2355V14.7642C1 14.6638 1.01934 14.5644 1.05692 14.4716C1.09449 14.3789 1.14956 14.2946 1.21899 14.2236C1.28841 14.1526 1.37082 14.0964 1.46151 14.058C1.5522 14.0196 1.6494 13.9999 1.74753 14H4.32778C4.42598 13.9998 4.52325 14.0194 4.61402 14.0577C4.70479 14.096 4.78726 14.1523 4.85669 14.2234C4.92612 14.2944 4.98116 14.3788 5.01862 14.4717C5.05609 14.5645 5.07525 14.6641 5.075 14.7645V37.2355V37.2355ZM14.5 37.2355C14.5 37.3359 14.5193 37.4354 14.5568 37.5282C14.5944 37.621 14.6494 37.7053 14.7189 37.7763C14.7883 37.8473 14.8707 37.9036 14.9614 37.942C15.0522 37.9804 15.1494 38.0001 15.2475 38H17.8278C17.926 38.0002 18.0232 37.9806 18.114 37.9423C18.2048 37.904 18.2873 37.8477 18.3567 37.7766C18.4261 37.7056 18.4812 37.6212 18.5186 37.5283C18.5561 37.4355 18.5752 37.3359 18.575 37.2355V14.7642C18.575 14.6638 18.5557 14.5644 18.5181 14.4716C18.4805 14.3789 18.4254 14.2946 18.356 14.2236C18.2866 14.1526 18.2042 14.0964 18.1135 14.058C18.0228 14.0196 17.9256 13.9999 17.8275 14H15.2472C15.149 13.9998 15.0518 14.0194 14.961 14.0577C14.8702 14.096 14.7877 14.1523 14.7183 14.2234C14.6489 14.2944 14.5938 14.3788 14.5564 14.4717C14.5189 14.5645 14.4998 14.6641 14.5 14.7645V37.2355Z" fill="#7A20FF"/>
</svg>
