<svg width="28" height="28" viewBox="0 0 28 28" fill="none" xmlns="http://www.w3.org/2000/svg">
<path d="M25.6667 14C25.6686 15.5367 25.3661 17.0585 24.7764 18.4776C24.1868 19.8966 23.3218 21.1848 22.2314 22.2676C21.1499 23.3471 19.8663 24.203 18.4539 24.7862C17.0415 25.3695 15.5281 25.6686 14 25.6667C7.55649 25.6667 2.33332 20.4435 2.33332 14C2.32924 11.0085 3.47833 8.13058 5.54166 5.96457C6.63036 4.81576 7.94203 3.90117 9.3964 3.2768C10.8508 2.65242 12.4173 2.33138 14 2.33332C15.5281 2.33134 17.0415 2.63052 18.4539 3.21375C19.8663 3.79699 21.1499 4.65284 22.2314 5.73241C23.3218 6.8152 24.1868 8.10335 24.7764 9.52241C25.3661 10.9415 25.6686 12.4633 25.6667 14V14Z" stroke="black" stroke-width="4" stroke-linecap="round" stroke-linejoin="round"/>
<path d="M25.6667 14C23.9645 14 19.2687 13.3583 15.0658 15.2034C10.5 17.2083 7.19425 20.3181 5.75342 22.2524" stroke="black" stroke-width="4" stroke-linecap="round" stroke-linejoin="round"/>
<path d="M9.625 3.18152C11.4508 4.86677 15.435 9.15718 16.9167 13.4167C18.3983 17.6762 18.9467 22.9134 19.285 24.4038" stroke="black" stroke-width="4" stroke-linecap="round" stroke-linejoin="round"/>
<path d="M2.42316 12.5417C4.62699 12.6747 10.4609 12.7943 14.1942 11.2C17.9276 9.60575 21.14 6.67334 22.2419 5.74292M3.20832 18.4409C4.23634 20.9294 6.0904 22.9876 8.45832 24.269" stroke="black" stroke-width="4" stroke-linecap="round" stroke-linejoin="round"/>
<path d="M2.33332 14C2.32924 11.0085 3.47833 8.13058 5.54166 5.96457C6.63036 4.81575 7.94203 3.90117 9.3964 3.27679C10.8508 2.65242 12.4173 2.33138 14 2.33332M18.6667 3.30399C19.9953 3.8853 21.2041 4.70879 22.2314 5.7324C23.3218 6.8152 24.1868 8.10335 24.7764 9.52241C25.3661 10.9415 25.6686 12.4633 25.6667 14C25.6667 15.4362 25.4071 16.8122 24.9317 18.0833M14 25.6667C15.5281 25.6686 17.0415 25.3695 18.4539 24.7862C19.8663 24.203 21.1499 23.3471 22.2314 22.2676" stroke="black" stroke-width="4" stroke-linecap="round" stroke-linejoin="round"/>
</svg>
